<?xml version="1.0" standalone="no"?>
<!DOCTYPE svg PUBLIC "-//W3C//DTD SVG 20010904//EN"
 "http://www.w3.org/TR/2001/REC-SVG-20010904/DTD/svg10.dtd">
<svg version="1.0" xmlns="http://www.w3.org/2000/svg"
 width="300.000000pt" height="300.000000pt" viewBox="0 0 300.000000 300.000000"
 preserveAspectRatio="xMidYMid meet">
<metadata>
Created by potrace 1.10, written by Peter Selinger 2001-2011
</metadata>
<g transform="translate(0.000000,300.000000) scale(0.100000,-0.100000)"
fill="#000000" stroke="none">
<path d="M1310 2080 c-213 -45 -376 -154 -485 -325 -77 -120 -101 -287 -92
-630 6 -229 17 -297 65 -410 17 -38 26 -71 21 -73 -5 -2 -21 5 -36 15 -16 10
-37 23 -48 30 -11 6 -99 61 -195 121 -390 243 -430 260 -479 208 -49 -52 -3
-116 147 -206 48 -29 103 -63 122 -75 75 -49 314 -195 453 -278 53 -32 97 -60
97 -62 0 -3 -23 -17 -52 -31 -77 -39 -151 -120 -198 -217 -45 -93 -61 -152
-40 -145 8 2 26 35 41 73 24 59 63 123 112 186 19 24 139 96 172 103 24 5 43
-1 90 -30 33 -20 103 -61 155 -91 52 -30 118 -72 145 -93 54 -40 210 -127 200
-110 -3 5 -27 22 -53 37 -26 15 -80 49 -120 75 -39 27 -143 91 -230 143 -416
249 -950 584 -989 622 -50 46 -56 85 -15 91 47 7 375 -181 822 -471 63 -41
187 -119 275 -174 88 -55 195 -122 238 -149 43 -27 91 -57 107 -67 16 -10 34
-15 41 -12 6 4 -11 20 -41 37 -61 35 -60 46 2 25 69 -23 106 -29 112 -18 4 6
-3 13 -16 15 -115 24 -173 43 -231 77 -38 21 -72 39 -77 39 -4 0 -59 31 -121
68 -63 38 -150 89 -194 115 -44 25 -94 61 -111 79 -37 39 -107 206 -124 293
-29 157 -20 616 16 735 24 80 56 138 114 209 201 239 597 322 880 184 94 -46
225 -173 287 -279 127 -214 144 -500 57 -909 -50 -232 -73 -383 -66 -420 2
-15 18 -29 45 -41 83 -38 159 -140 218 -294 9 -24 22 -46 29 -48 39 -13 -51
200 -116 277 -21 24 -62 59 -92 78 l-54 35 7 76 c8 88 11 104 58 309 41 176
57 316 57 492 0 275 -67 448 -245 627 -74 74 -105 98 -175 132 -147 71 -316
90 -490 52z"/>
<path d="M1174 1898 c-38 -41 -73 -101 -100 -173 -34 -91 -45 -280 -21 -360
l16 -50 2 115 c2 63 3 132 3 152 0 20 3 35 7 32 4 -2 9 13 12 34 11 65 48 166
78 211 33 49 35 75 3 39z"/>
<path d="M1244 1853 c-57 -60 -92 -171 -114 -363 -10 -89 -5 -238 8 -225 3 3
7 44 8 91 7 188 46 369 103 472 16 28 28 52 26 52 -3 0 -16 -12 -31 -27z"/>
<path d="M991 1742 c-13 -26 -25 -63 -26 -82 -2 -19 -6 -55 -10 -80 -11 -70
-13 -132 -3 -118 4 7 8 31 8 53 0 23 7 67 15 100 9 32 13 65 10 72 -2 8 -1 12
3 9 8 -5 36 83 29 90 -2 2 -14 -18 -26 -44z"/>
<path d="M1580 1629 c-98 -74 -142 -113 -288 -254 -155 -150 -156 -152 -150
-278 16 -307 205 -556 498 -655 47 -16 107 -32 135 -36 l49 -6 81 82 c95 98
126 153 159 279 25 95 44 244 29 222 -4 -6 -7 50 -5 125 4 154 -4 192 -48 242
-16 18 -28 35 -26 37 2 2 -10 19 -26 36 -16 18 -36 44 -43 58 -15 28 -139 141
-200 182 -22 15 -50 27 -62 27 -12 0 -58 -27 -103 -61z m161 -24 c31 -22 63
-44 144 -97 l30 -20 -40 6 c-92 14 -274 18 -349 7 -44 -6 -80 -10 -82 -8 -7 6
223 137 242 137 12 0 36 -11 55 -25z m127 -140 c22 -3 55 -19 73 -35 l34 -29
-33 -1 c-50 0 -102 -25 -102 -49 0 -25 -3 -25 48 -1 59 29 96 26 120 -7 49
-73 57 -104 55 -213 -2 -58 -8 -127 -14 -155 -40 -181 -156 -340 -312 -426
-61 -33 -52 -39 10 -6 64 34 186 146 226 207 20 31 50 89 67 130 17 40 33 76
37 79 14 14 -10 -148 -32 -216 -35 -104 -66 -161 -120 -221 -50 -56 -90 -82
-125 -82 -12 0 -18 -4 -15 -10 9 -14 -3 -13 -68 10 -31 11 -66 20 -77 20 -16
0 -21 5 -18 23 2 16 9 21 25 19 12 -2 24 1 27 6 3 5 -22 10 -55 11 -153 4
-289 102 -366 261 -49 101 -70 176 -79 286 -9 116 -2 140 61 207 30 33 55 62
55 67 0 12 59 30 100 30 21 0 54 -7 73 -15 42 -17 67 -19 67 -5 0 20 -53 43
-113 49 l-62 6 50 30 c27 16 70 32 95 35 58 7 317 4 368 -5z"/>
<path d="M1360 1263 c-44 -12 -88 -39 -113 -69 -27 -32 -28 -36 -17 -71 23
-71 61 -97 161 -110 78 -11 126 -1 157 33 29 33 28 44 -9 109 -32 58 -79 104
-107 106 -9 1 -26 3 -37 4 -11 1 -27 0 -35 -2z m97 -33 c33 -20 78 -95 84
-140 5 -35 -47 -60 -124 -60 -63 0 -105 16 -149 58 -35 32 -35 52 -1 93 58 69
128 87 190 49z"/>
<path d="M1344 1232 c-20 -14 -44 -57 -44 -80 0 -53 48 -102 100 -102 10 0 32
12 49 26 43 36 44 93 2 135 -29 29 -81 39 -107 21z m43 -18 c7 -18 -23 -47
-38 -38 -13 8 -11 42 4 47 21 9 27 7 34 -9z m33 -55 c0 -6 -6 -17 -14 -25 -19
-18 -33 1 -16 21 15 18 30 20 30 4z m44 -44 c-9 -29 -33 -45 -69 -45 -31 0
-55 15 -55 34 0 6 5 5 12 -2 30 -30 98 -1 98 42 0 17 2 18 10 6 5 -8 7 -24 4
-35z"/>
<path d="M1840 1243 c-37 -41 -80 -127 -80 -160 0 -48 28 -65 108 -64 111 1
143 21 169 105 10 34 9 44 -7 76 -12 24 -33 44 -57 55 -35 17 -41 17 -81 3
-34 -13 -40 -13 -31 -2 21 25 5 15 -21 -13z m146 -27 c27 -27 34 -42 34 -73 0
-51 -20 -78 -75 -98 -53 -21 -127 -13 -156 16 -19 19 -19 20 1 70 25 68 53 98
85 91 27 -5 33 -23 12 -40 -14 -12 -32 -4 -39 18 -8 24 -30 -27 -30 -68 0 -27
7 -42 27 -59 30 -27 55 -29 94 -8 33 17 41 33 41 84 0 46 -22 78 -63 90 l-32
9 34 1 c25 1 41 -7 67 -33z m-24 -81 c1 -26 -4 -42 -17 -51 -24 -18 -69 -18
-83 -1 -9 10 -4 12 22 9 26 -3 37 1 50 19 9 13 16 34 16 48 0 39 10 18 12 -24z"/>
<path d="M1760 889 c0 -30 -38 -69 -67 -69 -32 0 -74 18 -89 38 -12 16 -13 15
-14 -4 0 -22 28 -54 48 -54 7 0 20 -5 30 -11 13 -8 27 -7 54 4 29 12 39 24 49
57 9 31 10 43 1 52 -9 9 -12 6 -12 -13z"/>
<path d="M1590 737 c-19 -5 -47 -7 -62 -5 -38 6 -35 -4 14 -46 80 -69 157 -69
231 -1 20 19 37 37 37 39 0 16 -170 26 -220 13z m116 -18 c-25 -6 -49 -6 -65
0 -21 8 -13 9 39 9 62 0 63 0 26 -9z m44 -40 c0 -4 -14 -12 -30 -19 -36 -15
-109 -9 -139 12 -19 13 -12 15 74 14 52 -1 95 -4 95 -7z"/>
<path d="M2075 1635 c42 -140 49 -194 50 -373 0 -133 2 -172 9 -140 5 23 9
104 9 178 1 141 -14 229 -55 315 -10 22 -16 31 -13 20z"/>
<path d="M941 1352 c-1 -36 0 -64 3 -62 7 8 13 121 6 125 -4 2 -8 -26 -9 -63z"/>
<path d="M1036 1250 c6 -59 37 -181 61 -243 28 -70 23 -31 -12 88 -19 65 -35
130 -36 144 0 14 -5 35 -10 46 -6 14 -7 3 -3 -35z"/>
<path d="M941 1080 c-3 -65 72 -269 133 -362 45 -69 51 -59 10 15 -47 82 -119
267 -137 352 -4 16 -5 15 -6 -5z"/>
<path d="M1010 1054 c0 -6 16 -47 36 -90 37 -81 95 -161 148 -204 33 -26 34
-26 -42 67 -24 28 -65 93 -92 145 -27 51 -50 88 -50 82z"/>
<path d="M1160 564 c1 -13 147 -164 195 -201 141 -108 387 -171 504 -129 57
21 63 14 14 -17 -56 -36 -126 -57 -184 -57 -36 0 -49 -4 -46 -12 7 -23 125
-10 180 20 26 14 50 22 53 19 4 -3 15 5 26 18 11 14 25 25 31 25 7 -1 46 -52
87 -115 41 -63 81 -115 88 -115 18 0 -15 58 -94 169 -45 62 -59 89 -52 99 6 6
17 12 24 12 7 0 21 11 30 25 9 14 23 25 30 25 8 0 14 5 14 10 0 17 -13 12 -64
-25 -53 -38 -128 -69 -191 -79 -56 -10 -251 37 -311 74 -19 12 -34 18 -34 13
0 -4 -5 -1 -10 7 -7 11 -10 11 -10 2 0 -7 -5 -10 -10 -7 -6 4 -7 11 -4 17 4 7
2 8 -4 4 -18 -11 -61 22 -164 128 -54 55 -98 95 -98 90z"/>
<path d="M1443 462 c62 -57 161 -121 231 -149 50 -21 72 -24 126 -20 69 5 201
53 229 83 15 15 14 16 -3 10 -11 -4 -40 -11 -65 -17 -25 -6 -54 -18 -64 -27
-15 -13 -39 -17 -111 -17 -82 0 -95 3 -136 28 -25 15 -88 54 -140 87 -52 32
-98 59 -102 59 -4 1 11 -16 35 -37z"/>
<path d="M1999 465 c-8 -9 -37 -24 -65 -35 l-49 -19 42 -1 c44 0 100 35 92 58
-3 9 -9 8 -20 -3z"/>
<path d="M1080 220 c0 -20 45 -114 82 -172 27 -43 34 -48 67 -47 31 0 33 1 14
9 -13 5 -23 13 -23 17 0 5 -11 20 -24 34 -14 15 -36 48 -50 75 -34 64 -66 104
-66 84z"/>
<path d="M1897 126 c6 -47 6 -48 -16 -37 -23 13 -45 6 -36 -10 4 -5 17 -9 30
-9 18 0 26 -7 31 -26 5 -19 9 -23 15 -13 4 8 1 39 -7 69 -20 77 -23 83 -17 26z"/>
<path d="M1630 123 c0 -5 14 -21 32 -36 l33 -28 -35 16 c-30 14 -32 14 -16 0
11 -8 23 -15 28 -15 13 0 9 -22 -9 -42 -9 -10 -11 -18 -5 -18 16 0 55 79 48
97 -3 8 -11 11 -16 8 -6 -4 -22 1 -35 9 -14 9 -25 13 -25 9z"/>
<path d="M1549 60 c-17 -31 -23 -53 -17 -56 6 -4 14 -1 18 6 6 9 13 9 28 1 11
-6 31 -11 44 -11 19 1 17 3 -12 16 -44 19 -44 18 -30 44 9 17 9 21 0 15 -9 -5
-10 -1 -5 14 10 34 2 24 -26 -29z"/>
<path d="M1775 88 c4 -11 -2 -32 -14 -53 -14 -25 -17 -35 -7 -35 7 0 21 16 32
35 18 33 18 36 1 52 -17 17 -18 17 -12 1z"/>
</g>
</svg>
